<svg width="157" height="106" viewBox="0 0 157 106" fill="none" xmlns="http://www.w3.org/2000/svg">
<path d="M115.586 35.036L82.3755 41.7576L85.1819 47.4543L46.3582 75.3747L88.6504 54.5083L91.0838 59.4479L115.586 35.036Z" fill="white"/>
<path d="M45.7518 76.6348C45.6451 76.6346 45.5402 76.6065 45.4472 76.5531C45.3542 76.4998 45.2761 76.4231 45.2204 76.3302C45.1367 76.198 45.1047 76.0386 45.1306 75.8835C45.1565 75.7284 45.2384 75.5889 45.3602 75.4925L83.7772 47.011L81.2043 41.6136C81.1629 41.526 81.1415 41.43 81.1415 41.3328C81.1415 41.2355 81.1629 41.1396 81.2043 41.052C81.2463 40.9668 81.3068 40.8926 81.3811 40.8349C81.4553 40.7772 81.5415 40.7375 81.6331 40.7188L114.848 33.7888C114.977 33.7606 115.111 33.776 115.231 33.8327C115.35 33.8894 115.448 33.9842 115.51 34.1029C115.574 34.2229 115.599 34.3608 115.58 34.4962C115.562 34.6316 115.501 34.7574 115.408 34.8549L90.9087 60.0238C90.8383 60.0944 90.7526 60.147 90.6584 60.1773C90.5643 60.2076 90.4645 60.2147 90.3672 60.198C90.2698 60.1812 90.1778 60.1412 90.0985 60.0811C90.0193 60.0211 89.9551 59.9427 89.9112 59.8524L87.7485 55.3308L46.0221 76.5682C45.9391 76.6136 45.846 76.6366 45.7518 76.6348ZM82.6492 41.7944L85.101 46.9348C85.1685 47.0673 85.1868 47.2203 85.1526 47.3655C85.1183 47.5107 85.0337 47.6384 84.9145 47.7249L52.1468 72.037L87.7578 53.9505C87.8329 53.9178 87.9138 53.9009 87.9955 53.9009C88.0772 53.9009 88.1581 53.9178 88.2332 53.9505C88.3117 53.9746 88.3845 54.0149 88.447 54.0689C88.5096 54.123 88.5606 54.1896 88.5968 54.2646L90.6477 58.5578L113.086 35.4451L82.6492 41.7944Z" fill="#231F20" stroke="black" stroke-width="0.35"/>
<path d="M73.5553 74.1141L57.8924 53.3012L60.5525 50.5869L47.5947 45.1207L52.455 59.2088L55.1872 56.0625L73.5553 74.1141Z" fill="white"/>
<path d="M74.1162 74.1128C73.9578 74.1141 73.8053 74.0533 73.6914 73.9437L54.8941 56.318L52.4866 58.9957C52.4133 59.0747 52.3209 59.1337 52.2182 59.1671C52.1155 59.2005 52.0059 59.2071 51.8999 59.1864C51.7938 59.1657 51.6949 59.1183 51.6125 59.0487C51.5301 58.9791 51.467 58.8897 51.4292 58.789L46.3971 44.6959C46.3549 44.5829 46.3468 44.46 46.3737 44.3425C46.4006 44.2249 46.4613 44.1177 46.5485 44.034C46.6356 43.9502 46.7454 43.8936 46.8644 43.871C46.9834 43.8484 47.1065 43.8608 47.2185 43.9067L60.7854 49.3748C60.8804 49.4138 60.9645 49.4752 61.0303 49.5538C61.0961 49.6324 61.1416 49.7257 61.163 49.8258C61.1818 49.9286 61.1752 50.0344 61.144 50.1342C61.1128 50.234 61.0578 50.3248 60.9836 50.3989L58.6045 52.7195L74.6544 73.1075C74.7534 73.2305 74.8016 73.3863 74.7893 73.5433C74.7771 73.7004 74.7052 73.8469 74.5883 73.9531C74.4579 74.0657 74.2885 74.123 74.1162 74.1128ZM54.8941 54.8053C55.0552 54.8046 55.2106 54.8651 55.3284 54.9744L68.461 67.32L57.2261 53.0766C57.1302 52.9572 57.082 52.8068 57.0907 52.6542C57.0994 52.5016 57.1644 52.3576 57.2733 52.2498L59.3787 50.2016L48.0021 45.5603L52.26 57.3515L54.4221 54.9838C54.535 54.8623 54.6904 54.7883 54.8564 54.7771L54.8941 54.8053Z" fill="#231F20" stroke="black" stroke-width="0.35"/>
<path d="M71.3316 27.1492L77.2643 27.5829L68.4064 6.04241L56.2485 26.0417L62.9856 26.5308L67.9676 76.6351L71.3316 27.1492Z" fill="white"/>
<path d="M68.0312 77.8578C67.8717 77.8584 67.7178 77.8009 67.5997 77.6966C67.4817 77.5923 67.4082 77.4488 67.3937 77.2944L62.1775 26.885L55.5993 26.4154C55.4914 26.4058 55.3877 26.3699 55.2977 26.3112C55.2078 26.2524 55.1345 26.1727 55.0845 26.0792C55.0345 25.9857 55.0094 25.8816 55.0116 25.7762C55.0138 25.6709 55.0431 25.5678 55.097 25.4764L67.9443 5.07034C68.0079 4.97416 68.0973 4.89666 68.2029 4.84616C68.3084 4.79566 68.4261 4.77408 68.5433 4.78374C68.6605 4.79339 68.7728 4.83392 68.8681 4.90097C68.9634 4.96801 69.0381 5.05903 69.0841 5.16425L78.454 27.0822C78.4942 27.1806 78.5082 27.2873 78.4946 27.3923C78.4811 27.4974 78.4406 27.5974 78.3767 27.6832C78.314 27.772 78.2283 27.8431 78.1282 27.8893C78.0281 27.9355 77.9172 27.9551 77.8068 27.9461L72.1849 27.5423L68.6688 77.3131C68.659 77.4693 68.5889 77.6161 68.4724 77.7241C68.356 77.8321 68.2018 77.8933 68.0409 77.8954L68.0312 77.8578ZM56.7488 25.1947L62.815 25.6266C62.9654 25.639 63.1066 25.7021 63.2142 25.805C63.3218 25.9079 63.389 26.0441 63.4043 26.1901L67.9153 69.8193L70.9485 26.885C70.9522 26.8018 70.9739 26.7204 71.0121 26.646C71.0504 26.5715 71.1044 26.5058 71.1706 26.453C71.2334 26.3986 71.3068 26.3573 71.3865 26.3314C71.4663 26.3056 71.5506 26.2958 71.6343 26.3028L76.8602 26.669L68.379 6.77006L56.7488 25.1947Z" fill="#231F20" stroke="black" stroke-width="0.35"/>
<path d="M108.17 1L77.6015 18.9822L83.0003 23.3312L51.3035 69.0715L91.7474 30.3558L96.7136 34.3456L108.17 1Z" fill="white"/>
<path d="M51.9179 69.0715C51.7694 69.0735 51.6254 69.0207 51.513 68.923C51.3996 68.8211 51.3268 68.6811 51.3082 68.5292C51.2896 68.3772 51.3264 68.2236 51.4117 68.0969L82.1022 23.6667L77.2617 19.7593C77.1838 19.6972 77.1222 19.6169 77.0822 19.5253C77.0422 19.4336 77.0251 19.3336 77.0324 19.2337C77.0397 19.1339 77.0711 19.0374 77.1239 18.9527C77.1767 18.8679 77.2493 18.7975 77.3353 18.7476L107.253 1.08503C107.359 1.02099 107.483 0.991944 107.607 1.00192C107.73 1.0119 107.848 1.0604 107.943 1.14072C108.04 1.21983 108.111 1.32737 108.146 1.44864C108.18 1.56992 108.177 1.69901 108.136 1.81827L96.9275 34.5631C96.8946 34.6554 96.8409 34.7386 96.7707 34.8063C96.7004 34.8739 96.6154 34.9241 96.5226 34.953C96.4286 34.9815 96.329 34.9863 96.2327 34.9669C96.1364 34.9475 96.0463 34.9044 95.9704 34.8416L91.5256 31.2589L52.332 68.9044C52.221 69.0127 52.0723 69.0727 51.9179 69.0715ZM78.7249 19.3602L83.3261 23.0727C83.4478 23.1683 83.5282 23.3076 83.5505 23.4615C83.5728 23.6154 83.5353 23.7721 83.4458 23.8988L55.8934 63.8089L91.0655 29.9967C91.1777 29.8981 91.3215 29.8438 91.4704 29.8438C91.6192 29.8438 91.7631 29.8981 91.8753 29.9967L96.0533 33.3658L106.443 2.99701L78.7249 19.3602Z" fill="#231F20" stroke="black" stroke-width="0.35"/>
<path d="M79.736 72.8534L58.2559 35.4182L61.5692 33.2583L42.6494 18.6483L48.8995 41.4923L52.6082 39.0872L79.736 72.8534Z" fill="white"/>
<path d="M79.1024 72.844C79.0093 72.8449 78.9172 72.8255 78.8326 72.7872C78.7481 72.749 78.6733 72.6928 78.6135 72.6228L51.8773 40.0517L48.6528 42.107C48.5707 42.1609 48.4762 42.1942 48.3779 42.2038C48.2795 42.2135 48.1802 42.1992 48.0888 42.1623C47.9967 42.1288 47.914 42.0747 47.847 42.0043C47.7801 41.9339 47.7309 41.8491 47.7033 41.7568L41.4329 19.4344C41.4013 19.3102 41.4086 19.1796 41.4539 19.0595C41.4991 18.9395 41.5803 18.8357 41.6868 18.7616C41.7942 18.6878 41.9222 18.6483 42.0534 18.6483C42.1846 18.6483 42.3126 18.6878 42.42 18.7616L61.3441 33.1025C61.4218 33.1649 61.4842 33.2437 61.5265 33.3331C61.5688 33.4225 61.59 33.5201 61.5885 33.6186C61.5817 33.7165 61.5518 33.8116 61.5012 33.8964C61.4507 33.9811 61.3808 34.0532 61.2971 34.1071L58.4768 35.8951L79.6476 71.9316C79.7048 72.0248 79.7355 72.1314 79.7364 72.2403C79.7372 72.3491 79.7083 72.4561 79.6526 72.5503C79.5969 72.6444 79.5165 72.7222 79.4197 72.7755C79.3229 72.8287 79.2133 72.8556 79.1024 72.8532V72.844ZM52.009 38.6324C52.1028 38.6326 52.1954 38.6535 52.28 38.6933C52.3646 38.7332 52.439 38.7911 52.4978 38.8628L74.5711 65.7381L57.1043 35.9596C57.0251 35.8238 57.0014 35.6635 57.038 35.5113C57.0747 35.359 57.1689 35.2261 57.3017 35.1393L59.8775 33.4988L43.1533 20.8722L48.681 40.6231L51.6705 38.7245C51.7725 38.6639 51.8896 38.632 52.009 38.6324Z" fill="#231F20" stroke="black" stroke-width="0.35"/>
<path d="M0 89.8954H3.13823V101.951H8.13787V104.632H0V89.8954Z" fill="#231F20"/>
<path d="M10.1145 89.8954H18.7523V92.553H13.2527V95.5814H18.7523V98.2622H13.2527V101.951H18.7523V104.632H10.1145V89.8954Z" fill="#231F20"/>
<path d="M25.6676 89.8954H29.2596L34.9207 104.632H31.3518L30.1596 101.499H24.4792L23.4562 104.632H20.0911L25.6676 89.8954ZM27.779 94.2642C27.6084 93.6126 27.4723 92.9525 27.3713 92.2864C27.2619 92.9693 27.1181 93.6461 26.9406 94.3144L25.3599 99.0116H29.4212L27.779 94.2642Z" fill="#231F20"/>
<path d="M36.459 89.8954H40.4587C43.0239 89.8954 44.9545 90.1194 46.5736 91.3362C48.3389 92.6573 49.285 94.6968 49.285 97.2926C49.285 99.8884 48.3235 101.97 46.5352 103.268C44.7468 104.566 42.9008 104.632 40.7048 104.632H36.4744L36.459 89.8954ZM41.3432 101.97C44.543 101.97 46.0621 100.611 46.0621 97.2733C46.0621 93.9359 44.5046 92.5723 41.3432 92.5723H39.5972V101.97H41.3432Z" fill="#231F20"/>
<path d="M55.3653 89.8954H58.9573L64.6184 104.632H61.0495L59.8611 101.499H54.1769L53.15 104.632H49.7849L55.3653 89.8954ZM57.4805 94.2642C57.3058 93.6134 57.1684 92.953 57.069 92.2864C56.9617 92.9697 56.8179 93.6467 56.6383 94.3144L55.0576 99.0116H59.1188L57.4805 94.2642Z" fill="#231F20"/>
<path d="M66.1565 89.8954H69.7678C73.5252 89.8954 75.4135 91.2744 75.4135 94.4303C75.4135 97.2308 73.4906 99.0039 70.1793 99.0039H69.3178V104.632H66.1565V89.8954ZM69.7678 96.551C71.41 96.551 72.2099 95.9329 72.2099 94.3067C72.2099 92.8195 71.4407 92.2246 69.7678 92.2246H69.3178V96.551H69.7678Z" fill="#231F20"/>
<path d="M84.563 104.632L80.7172 97.7484V104.632H77.552V89.8954H82.044C85.6168 89.8954 87.3782 91.2976 87.3782 94.0788C87.4144 95.0157 87.0995 95.9323 86.4957 96.6474C85.8919 97.3626 85.0431 97.8244 84.1169 97.9416L88.1589 104.64L84.563 104.632ZM81.1787 96.1801C83.1285 96.1801 84.2977 96.014 84.2977 94.3067C84.2977 92.5993 83.167 92.3057 81.1787 92.3057H80.7056V96.1686L81.1787 96.1801Z" fill="#231F20"/>
<path d="M90.001 89.8954H98.6388V92.553H93.1392V95.5814H98.6388V98.2622H93.1392V101.951H98.6388V104.632H90.001V89.8954Z" fill="#231F20"/>
<path d="M101.715 89.8954H104.976L111.461 98.4669C112.006 99.2661 112.448 100.132 112.776 101.043C112.621 100.083 112.552 99.1111 112.568 98.1386V89.8954H115.564V104.632H112.487L105.819 95.8904C105.275 95.084 104.834 94.2118 104.507 93.2946C104.66 94.2628 104.728 95.2425 104.711 96.2226V104.632H101.715V89.8954Z" fill="#231F20"/>
<path d="M118.83 89.8954H127.467V92.553H121.968V95.5814H127.467V98.2622H121.968V101.951H127.467V104.632H118.83V89.8954Z" fill="#231F20"/>
<path d="M143.162 99.0657C143.162 103.044 141.089 105.022 136.843 105.022C132.598 105.022 130.482 103.064 130.482 99.0657V89.8954H133.601V98.5635C133.601 101.016 134.69 102.233 136.801 102.233C138.913 102.233 140.043 100.974 140.043 98.5635V89.8954H143.162V99.0657Z" fill="#231F20"/>
<path d="M153.4 104.632L149.554 97.7484V104.632H146.393V89.8954H150.889C154.458 89.8954 156.223 91.2976 156.223 94.0788C156.259 95.0163 155.944 95.9334 155.339 96.6486C154.735 97.3639 153.885 97.8252 152.958 97.9416L157 104.64L153.4 104.632ZM150.016 96.1801C151.966 96.1801 153.135 96.014 153.135 94.3067C153.135 92.5993 152.008 92.3057 150.016 92.3057H149.543V96.1686L150.016 96.1801Z" fill="#231F20"/>
</svg>
